<svg width="32" height="32" viewBox="0 0 32 32" fill="none" xmlns="http://www.w3.org/2000/svg">
  <rect width="32" height="32" rx="16" fill="#4F46E5"/>
  <path d="M16 10C14.9 10 14 10.9 14 12C14 13.1 14.9 14 16 14C17.1 14 18 13.1 18 12C18 10.9 17.1 10 16 10ZM16 18C13.8 18 11 19.1 11 21.3V22H21V21.3C21 19.1 18.2 18 16 18ZM16 12C15.4 12 15 12.4 15 13C15 13.6 15.4 14 16 14C16.6 14 17 13.6 17 13C17 12.4 16.6 12 16 12ZM16 19C14.7 19 13.6 19.5 13 19.9V21H19V19.9C18.4 19.5 17.3 19 16 19Z" fill="white"/>
</svg> 